<svg width="26" height="26" viewBox="0 0 26 26" fill="none" xmlns="http://www.w3.org/2000/svg">
<g id="Group 1">
<path id="Ellipse 6" d="M23.3946 7C24.4156 8.76504 25 10.8143 25 13C25 19.6274 19.6274 25 13 25C6.37258 25 1 19.6274 1 13C1 6.37258 6.37258 1 13 1C15.1857 1 17.235 1.58437 19 2.60539C19.3933 2.83291 19.7725 3.08212 20.136 3.35137" stroke="black"/>
<path id="Vector" d="M18.2667 6.60014L18.0779 6.41135L18 6.48975V6.60014H18.2667ZM23.5997 1.26713L23.7885 1.07834C23.7637 1.05351 23.7343 1.0338 23.7019 1.02036C23.6695 1.00692 23.6347 1 23.5997 1C23.5646 1 23.5299 1.00692 23.4975 1.02036C23.4651 1.0338 23.4356 1.05351 23.4109 1.07834L23.5997 1.26713ZM25.7329 3.40033L25.9217 3.58912C25.9465 3.56435 25.9662 3.53493 25.9796 3.50253C25.9931 3.47014 26 3.43541 26 3.40033C26 3.36526 25.9931 3.33053 25.9796 3.29814C25.9662 3.26574 25.9465 3.23631 25.9217 3.21154L25.7329 3.40033ZM20.3999 8.73335V9H20.5103L20.5886 8.92214L20.3999 8.73335ZM18.2667 8.73335H18C18 8.80407 18.0281 8.87189 18.0781 8.9219C18.1281 8.97191 18.1959 9 18.2667 9V8.73335ZM18.4554 6.78893L23.7885 1.45592L23.4109 1.07834L18.0779 6.41135L18.4554 6.78893ZM23.4109 1.45592L25.5441 3.58912L25.9217 3.21154L23.7885 1.07834L23.4109 1.45592ZM25.5441 3.21154L20.2111 8.54456L20.5886 8.92214L25.9217 3.58912L25.5441 3.21154ZM20.3999 8.4667H18.2667V9H20.3999V8.4667ZM18.5333 8.73335V6.60014H18V8.73335H18.5333Z" fill="black"/>
<g id="Group">
<path id="Vector_2" d="M20.4142 20.4142C20.7893 20.0391 21 19.5304 21 19C21 17.9391 20.5786 16.9217 19.8284 16.1716C19.0783 15.4214 18.0609 15 17 15H9C7.93913 15 6.92172 15.4214 6.17157 16.1716C5.42143 16.9217 5 17.9391 5 19C5 19.5304 5.21071 20.0391 5.58579 20.4142" stroke="black" stroke-linejoin="round"/>
<path id="Vector_3" d="M13 11C14.6569 11 16 9.65685 16 8C16 6.34315 14.6569 5 13 5C11.3431 5 10 6.34315 10 8C10 9.65685 11.3431 11 13 11Z" stroke="black"/>
</g>
</g>
</svg>
